<svg width="26" height="26" viewBox="0 0 26 26" fill="none" xmlns="http://www.w3.org/2000/svg">
<path d="M14.8947 9.3722C16.8292 10.5627 17.7964 11.158 18.121 11.9351C18.4041 12.613 18.4041 13.387 18.121 14.0649C17.7964 14.842 16.8292 15.4373 14.8947 16.6278C12.9603 17.8183 11.9931 18.4136 11.1994 18.3246C10.5071 18.2471 9.87823 17.86 9.46908 17.2597C9 16.5715 9 15.381 9 13C9 10.619 9 9.42847 9.46908 8.74025C9.87823 8.13996 10.5071 7.75292 11.1994 7.67536C11.9931 7.58644 12.9603 8.18169 14.8947 9.3722Z" stroke="white" stroke-width="2"/>
<path d="M1 13C1 8.00036 1 5.50054 2.27322 3.7481C2.68442 3.18213 3.18213 2.68442 3.7481 2.27322C5.50054 1 8.00036 1 13 1C17.9996 1 20.4995 1 22.2519 2.27322C22.8179 2.68442 23.3156 3.18213 23.7268 3.7481C25 5.50054 25 8.00036 25 13C25 17.9996 25 20.4995 23.7268 22.2519C23.3156 22.8179 22.8179 23.3156 22.2519 23.7268C20.4995 25 17.9996 25 13 25C8.00036 25 5.50054 25 3.7481 23.7268C3.18213 23.3156 2.68442 22.8179 2.27322 22.2519C1 20.4995 1 17.9996 1 13Z" stroke="white" stroke-width="2"/>
</svg>
