<svg width="24" height="26" viewBox="0 0 24 26" fill="none" xmlns="http://www.w3.org/2000/svg">
<path d="M3.47329 23.8541L4.0023 23.126L3.47329 23.8541ZM2.1459 22.5267L2.87401 21.9977L2.1459 22.5267ZM21.4541 22.5267L20.726 21.9977L21.4541 22.5267ZM20.1267 23.8541L20.6557 24.5822L20.1267 23.8541ZM20.1267 4.5459L20.6557 3.81778L20.1267 4.5459ZM21.4541 5.87329L20.726 6.4023L21.4541 5.87329ZM3.47329 4.5459L4.0023 5.27401H4.0023L3.47329 4.5459ZM2.1459 5.87329L2.87401 6.4023L2.1459 5.87329ZM20.4614 17.8739L20.3206 16.985L20.4614 17.8739ZM15.4739 22.8614L14.585 22.7206L15.4739 22.8614ZM8.2 14.5C7.70294 14.5 7.3 14.9029 7.3 15.4C7.3 15.8971 7.70294 16.3 8.2 16.3V14.5ZM15.4 16.3C15.8971 16.3 16.3 15.8971 16.3 15.4C16.3 14.9029 15.8971 14.5 15.4 14.5V16.3ZM14.5 4.6C14.5 5.09706 14.9029 5.5 15.4 5.5C15.8971 5.5 16.3 5.09706 16.3 4.6H14.5ZM16.3 1C16.3 0.502944 15.8971 0.1 15.4 0.1C14.9029 0.1 14.5 0.502944 14.5 1H16.3ZM7.3 4.6C7.3 5.09706 7.70294 5.5 8.2 5.5C8.69706 5.5 9.1 5.09706 9.1 4.6H7.3ZM9.1 1C9.1 0.502944 8.69706 0.1 8.2 0.1C7.70294 0.1 7.3 0.502944 7.3 1H9.1ZM22.5653 17.8L23.4648 17.8308L22.5653 17.8ZM1.03471 10.6L0.135242 10.5692L1.03471 10.6ZM22.5653 10.6L23.4648 10.5692L22.5653 10.6ZM11.8 24.1C9.53011 24.1 7.89999 24.0988 6.63765 23.962C5.39216 23.8271 4.6119 23.5689 4.0023 23.126L2.94428 24.5822C3.91187 25.2852 5.04513 25.6 6.44377 25.7515C7.82557 25.9012 9.57021 25.9 11.8 25.9V24.1ZM0.1 14.2C0.1 16.4298 0.0987646 18.1744 0.248473 19.5562C0.400007 20.9549 0.714789 22.0881 1.41778 23.0557L2.87401 21.9977C2.43111 21.3881 2.17294 20.6078 2.038 19.3623C1.90124 18.1 1.9 16.4699 1.9 14.2H0.1ZM4.0023 23.126C3.56933 22.8114 3.18858 22.4307 2.87401 21.9977L1.41778 23.0557C1.84337 23.6415 2.35851 24.1566 2.94428 24.5822L4.0023 23.126ZM20.726 21.9977C20.4114 22.4307 20.0307 22.8114 19.5977 23.126L20.6557 24.5822C21.2415 24.1566 21.7566 23.6415 22.1822 23.0557L20.726 21.9977ZM19.5977 5.27401C20.0307 5.58858 20.4114 5.96933 20.726 6.4023L22.1822 5.34428C21.7566 4.75851 21.2415 4.24337 20.6557 3.81778L19.5977 5.27401ZM2.94428 3.81778C2.35851 4.24337 1.84337 4.75851 1.41778 5.34428L2.87401 6.4023C3.18858 5.96933 3.56933 5.58858 4.0023 5.27401L2.94428 3.81778ZM20.3206 16.985C17.3681 17.4526 15.0526 19.7681 14.585 22.7206L16.3628 23.0022C16.7084 20.8199 18.4199 19.1084 20.6022 18.7628L20.3206 16.985ZM8.2 16.3H15.4V14.5H8.2V16.3ZM22.5653 16.9C21.5066 16.9 20.8694 16.898 20.3206 16.985L20.6022 18.7628C20.9764 18.7035 21.4406 18.7 22.5653 18.7L22.5653 16.9ZM21.7 14.2C21.7 15.6077 21.6999 16.7747 21.6658 17.7692L23.4648 17.8308C23.5001 16.7989 23.5 15.5977 23.5 14.2H21.7ZM21.6658 17.7692C21.5896 19.9951 21.3411 21.151 20.726 21.9977L22.1822 23.0557C23.1444 21.7313 23.3877 20.079 23.4648 17.8308L21.6658 17.7692ZM16.3 24.9653C16.3 23.8406 16.3035 23.3764 16.3628 23.0022L14.585 22.7206C14.498 23.2694 14.5 23.9066 14.5 24.9653L16.3 24.9653ZM11.8 25.9C13.1977 25.9 14.3989 25.9001 15.4308 25.8648L15.3692 24.0658C14.3747 24.0999 13.2077 24.1 11.8 24.1V25.9ZM15.4308 25.8648C17.6789 25.7877 19.3313 25.5444 20.6557 24.5822L19.5977 23.126C18.751 23.7411 17.5951 23.9895 15.3692 24.0658L15.4308 25.8648ZM1.9 14.2C1.9 12.7923 1.90011 11.6253 1.93419 10.6308L0.135242 10.5692C0.0998873 11.6011 0.1 12.8023 0.1 14.2H1.9ZM1.93419 10.6308C2.01045 8.40491 2.25888 7.24895 2.87401 6.4023L1.41778 5.34428C0.455555 6.66867 0.212266 8.32105 0.135242 10.5692L1.93419 10.6308ZM1.03471 11.5H22.5653V9.7H1.03471V11.5ZM23.5 14.2C23.5 12.8023 23.5001 11.6011 23.4648 10.5692L21.6658 10.6308C21.6999 11.6253 21.7 12.7923 21.7 14.2H23.5ZM23.4648 10.5692C23.3877 8.32105 23.1444 6.66867 22.1822 5.34428L20.726 6.4023C21.3411 7.24895 21.5896 8.40491 21.6658 10.6308L23.4648 10.5692ZM16.3 4.6V3.43471H14.5V4.6H16.3ZM16.3 3.43471V1H14.5V3.43471H16.3ZM11.8 4.3C13.2077 4.3 14.3747 4.30011 15.3692 4.33419L15.4308 2.53524C14.3989 2.49989 13.1977 2.5 11.8 2.5V4.3ZM15.3692 4.33419C17.5951 4.41045 18.751 4.65888 19.5977 5.27401L20.6557 3.81778C19.3313 2.85556 17.679 2.61227 15.4308 2.53524L15.3692 4.33419ZM9.1 4.6V3.43471H7.3V4.6H9.1ZM9.1 3.43471V1H7.3V3.43471H9.1ZM11.8 2.5C10.4023 2.5 9.20109 2.49989 8.16918 2.53524L8.23082 4.33419C9.22534 4.30011 10.3923 4.3 11.8 4.3V2.5ZM8.16918 2.53524C5.92105 2.61227 4.26867 2.85556 2.94428 3.81778L4.0023 5.27401C4.84895 4.65888 6.00491 4.41045 8.23082 4.33419L8.16918 2.53524Z" fill="white"/>
</svg>
