<svg width="24" height="25" viewBox="0 0 24 25" fill="none" xmlns="http://www.w3.org/2000/svg">
    <path fill-rule="evenodd" clip-rule="evenodd"
        d="M12 2.72363C12.4142 2.72363 12.75 3.05942 12.75 3.47363V16.2841C13.0727 15.9567 13.4563 15.4747 14.0145 14.7706L15.4123 13.0077C15.6697 12.6831 16.1414 12.6286 16.466 12.8859C16.7905 13.1433 16.845 13.615 16.5877 13.9396L15.1614 15.7384C14.6283 16.4109 14.1883 16.9658 13.7945 17.3611C13.3904 17.7668 12.9419 18.1031 12.3687 18.1944C12.2466 18.2139 12.1234 18.2236 12 18.2236C11.8766 18.2236 11.7534 18.2139 11.6313 18.1944C11.0582 18.1031 10.6096 17.7668 10.2055 17.3611C9.81172 16.9658 9.37175 16.4109 8.83857 15.7384L7.41232 13.9396C7.15498 13.615 7.20947 13.1433 7.53404 12.8859C7.85861 12.6286 8.33034 12.6831 8.58769 13.0077L9.98554 14.7706C10.5438 15.4747 10.9273 15.9567 11.25 16.2841V3.47363C11.25 3.05942 11.5858 2.72363 12 2.72363ZM19.5499 10.874C19.8811 10.6252 20.3513 10.692 20.6 11.0232C21.3219 11.9843 21.75 13.18 21.75 14.4736L21.75 15.5544C21.7501 16.4065 21.7501 16.9255 21.6792 17.3731C21.2895 19.8335 19.3599 21.7632 16.8995 22.1528C16.4518 22.2237 15.9328 22.2237 15.0808 22.2236H8.91921C8.06718 22.2237 7.54819 22.2237 7.10051 22.1528C4.64013 21.7632 2.71049 19.8335 2.3208 17.3731C2.2499 16.9255 2.24994 16.4065 2.25 15.5545L2.25001 14.4736C2.25001 13.18 2.67807 11.9843 3.39997 11.0232C3.64874 10.692 4.11888 10.6252 4.45008 10.874C4.78127 11.1227 4.84808 11.5929 4.59932 11.9241C4.06583 12.6343 3.75001 13.516 3.75001 14.4736V15.4736C3.75001 16.4313 3.75234 16.8228 3.80233 17.1385C4.09036 18.957 5.51662 20.3833 7.33516 20.6713C7.65083 20.7213 8.04234 20.7236 9.00001 20.7236H15C15.9577 20.7236 16.3492 20.7213 16.6649 20.6713C18.4834 20.3833 19.9097 18.957 20.1977 17.1385C20.2477 16.8228 20.25 16.4313 20.25 15.4736V14.4736C20.25 13.516 19.9342 12.6343 19.4007 11.9241C19.1519 11.5929 19.2188 11.1227 19.5499 10.874Z"
        fill="black" />
</svg>
