<svg width="70" height="23" viewBox="0 0 70 23" fill="none" xmlns="http://www.w3.org/2000/svg">
    <path
        d="M10.7895 0H16.5789C16.5789 0.709133 16.5789 1.43165 16.5789 2.14078C17.7632 2.15416 18.9605 2.0605 20.1316 2.31472C23.0263 2.87667 25.5921 4.99069 26.6842 7.77371C26.6447 5.17801 26.6842 2.5957 26.6711 0H32.4211C32.4211 2.87667 32.4211 5.73997 32.4211 8.60326C34.8816 5.73997 37.3158 2.86329 39.7895 0H51.3158C51.3158 2.70273 51.3158 5.41885 51.3158 8.12158C52.3026 7.82723 53.3158 7.59977 54.3421 7.62653C56.25 7.66667 58.1053 8.28214 59.8684 8.97789C59.8684 5.9808 59.8684 2.99709 59.8684 0H65.5263C65.5263 3.50553 65.5263 7.01105 65.5263 10.5166C67.1579 10.249 68.6447 9.44619 70 8.5096V14.3432C68.2632 15.2397 66.5658 15.8953 64.5789 15.6411C64.1316 15.5876 63.7632 15.534 63.1711 15.4002C63.7368 15.7615 65.1184 16.6044 65.5263 16.8586C65.5263 18.8389 65.5263 21.0332 65.5263 23H59.8684C59.8684 20.1768 59.8684 17.3537 59.8684 14.5439C58.9474 14.2094 58.0395 13.8348 57.1184 13.5003C56.2237 13.1658 55.3289 12.7912 54.3553 12.7243C53.3158 12.6306 52.2632 12.8848 51.3158 13.3397C51.3158 16.5643 51.3158 19.7755 51.3158 23H39.2895C37.2105 20.3106 35.1447 17.6079 33.0526 14.9319C32.9079 14.7981 32.7763 14.5172 32.5395 14.6376C32.4211 14.8517 32.4079 15.1193 32.4079 15.3601C32.4079 17.9023 32.4079 20.4444 32.4079 23H26.6579C26.6711 20.2304 26.6316 17.4607 26.6711 14.6911C25.5921 17.434 23.0921 19.5346 20.25 20.1233C19.0395 20.4043 17.8026 20.2973 16.5789 20.324C16.5789 21.2205 16.5789 22.1035 16.5789 23H10.7895C10.7895 22.1035 10.7895 21.2205 10.7895 20.324C9.56579 20.3106 8.34211 20.4043 7.13158 20.1367C4.6579 19.6283 2.44737 17.9959 1.19737 15.7749C0.473684 14.5439 0.0921053 13.1123 0 11.6672V10.8511C0.0921053 9.07155 0.684211 7.31879 1.72368 5.88714C3.06579 4.01396 5.11842 2.70273 7.35526 2.30134C8.48684 2.08726 9.64474 2.16754 10.7895 2.15416C10.7895 1.43165 10.7895 0.709133 10.7895 0ZM37.2368 11.2123C40.0395 14.7714 42.8553 18.317 45.6579 21.8761C45.6579 14.9052 45.6579 7.92088 45.6579 0.949971C42.8553 4.37522 40.0395 7.78709 37.2368 11.2123ZM7.60526 7.59977C6.23684 8.12158 5.22368 9.48633 5.14474 10.9715C5.01316 12.5369 5.93421 14.1024 7.32895 14.758C8.4079 15.3066 9.63158 15.0925 10.7895 15.1326C10.7895 12.5369 10.7895 9.94125 10.7895 7.33217C9.72368 7.38569 8.61842 7.19837 7.60526 7.59977ZM14.2895 7.33217C14.5263 7.45259 16.3947 8.38918 16.5658 8.48284C16.5789 10.6102 16.5658 13.0052 16.5658 15.1326C17.6842 15.0925 18.8684 15.2932 19.9342 14.7981C21.3816 14.1693 22.3553 12.5637 22.2105 10.9581C22.1184 9.08493 20.5132 7.45259 18.6842 7.34555C16.6974 7.33217 16.2895 7.35893 14.2895 7.33217Z"
        fill="#CF151C" />
</svg>
