<svg width="131" height="24" viewBox="0 0 131 24" fill="none" xmlns="http://www.w3.org/2000/svg">
    <path
        d="M68.5256 6.76929C68.5256 8.07065 67.4707 9.12561 66.1693 9.12561C64.8679 9.12561 63.813 8.07065 63.813 6.76929C63.813 5.46793 64.8679 4.41296 66.1693 4.41296C67.4707 4.41296 68.5256 5.46793 68.5256 6.76929Z"
        fill="#CCCDD4" />
    <path fill-rule="evenodd" clip-rule="evenodd"
        d="M69.7038 6.76929C69.7038 8.07065 70.7967 9.12561 72.1449 9.12561H77.8662C79.2143 9.12561 80.3072 8.07065 80.3072 6.76929C80.3072 5.46793 79.2143 4.41296 77.8662 4.41296H72.1449C70.7967 4.41296 69.7038 5.46793 69.7038 6.76929ZM72.0601 8.53653C73.0361 8.53653 73.8274 7.74531 73.8274 6.76929C73.8274 5.79327 73.0361 5.00204 72.0601 5.00204C71.0841 5.00204 70.2929 5.79327 70.2929 6.76929C70.2929 7.74531 71.0841 8.53653 72.0601 8.53653Z"
        fill="#CCCDD4" />
    <path fill-rule="evenodd" clip-rule="evenodd"
        d="M63.813 18.4661C63.813 19.8143 64.8679 20.9072 66.1693 20.9072C67.4707 20.9072 68.5256 19.8143 68.5256 18.4661V12.7449C68.5256 11.3967 67.4707 10.3038 66.1693 10.3038C64.8679 10.3038 63.813 11.3967 63.813 12.7449V18.4661Z"
        fill="#CCCDD4" />
    <path fill-rule="evenodd" clip-rule="evenodd"
        d="M75.5946 18.4661C75.5946 19.8143 76.6496 20.9072 77.9509 20.9072C79.2523 20.9072 80.3072 19.8143 80.3072 18.4661V12.7449C80.3072 11.3967 79.2523 10.3038 77.9509 10.3038C76.6496 10.3038 75.5946 11.3967 75.5946 12.7449V18.4661Z"
        fill="#CCCDD4" />
    <path
        d="M74.4164 12.6601C74.4164 13.9615 73.3615 15.0164 72.0601 15.0164C70.7588 15.0164 69.7038 13.9615 69.7038 12.6601C69.7038 11.3587 70.7588 10.3038 72.0601 10.3038C73.3615 10.3038 74.4164 11.3587 74.4164 12.6601Z"
        fill="#CCCDD4" />
    <path fill-rule="evenodd" clip-rule="evenodd"
        d="M72.0601 20.9072C73.3615 20.9072 74.4164 19.8523 74.4164 18.5509C74.4164 17.2495 73.3615 16.1946 72.0601 16.1946C70.7588 16.1946 69.7038 17.2495 69.7038 18.5509C69.7038 19.8523 70.7588 20.9072 72.0601 20.9072ZM72.0601 20.3181C73.0361 20.3181 73.8274 19.5269 73.8274 18.5509C73.8274 17.5749 73.0361 16.7837 72.0601 16.7837C71.0841 16.7837 70.2929 17.5749 70.2929 18.5509C70.2929 19.5269 71.0841 20.3181 72.0601 20.3181Z"
        fill="#CCCDD4" />
    <path
        d="M91.189 9.13472H87.0973V11.7576H90.5176C90.8347 11.7576 91.0701 11.8299 91.224 11.9744C91.3826 12.1143 91.4618 12.3032 91.4618 12.541C91.4618 12.7788 91.3826 12.9676 91.224 13.1075C91.0655 13.2474 90.83 13.3173 90.5176 13.3173H87.0973V16.6956C87.0973 17.1246 86.9994 17.444 86.8036 17.6538C86.6124 17.859 86.3653 17.9616 86.0622 17.9616C85.7544 17.9616 85.5026 17.8567 85.3068 17.6469C85.1156 17.437 85.02 17.1199 85.02 16.6956V8.80599C85.02 8.50756 85.0643 8.26509 85.1529 8.07857C85.2415 7.88739 85.3791 7.74984 85.5656 7.66591C85.7568 7.57731 85.9992 7.53301 86.293 7.53301H91.189C91.5201 7.53301 91.7649 7.60762 91.9235 7.75683C92.0867 7.90138 92.1683 8.09256 92.1683 8.33037C92.1683 8.57284 92.0867 8.76868 91.9235 8.9179C91.7649 9.06245 91.5201 9.13472 91.189 9.13472Z"
        fill="#CCCDD4" />
    <path
        d="M94.0914 16.6956V8.61714C94.0914 8.19748 94.187 7.88273 94.3782 7.6729C94.5694 7.46307 94.8165 7.35815 95.1196 7.35815C95.432 7.35815 95.6838 7.46307 95.875 7.6729C96.0708 7.87807 96.1688 8.19281 96.1688 8.61714V16.6956C96.1688 17.1199 96.0708 17.437 95.875 17.6469C95.6838 17.8567 95.432 17.9616 95.1196 17.9616C94.8212 17.9616 94.574 17.8567 94.3782 17.6469C94.187 17.4324 94.0914 17.1153 94.0914 16.6956Z"
        fill="#CCCDD4" />
    <path
        d="M105.443 9.24663H103.177V16.6956C103.177 17.1246 103.081 17.444 102.89 17.6538C102.699 17.859 102.452 17.9616 102.149 17.9616C101.841 17.9616 101.589 17.8567 101.393 17.6469C101.202 17.437 101.106 17.1199 101.106 16.6956V9.24663H98.8403C98.4859 9.24663 98.2225 9.16969 98.05 9.01582C97.8774 8.85728 97.7912 8.64978 97.7912 8.39332C97.7912 8.12753 97.8798 7.9177 98.057 7.76383C98.2388 7.60995 98.4999 7.53301 98.8403 7.53301H105.443C105.802 7.53301 106.068 7.61228 106.24 7.77082C106.418 7.92936 106.506 8.13686 106.506 8.39332C106.506 8.64978 106.418 8.85728 106.24 9.01582C106.063 9.16969 105.797 9.24663 105.443 9.24663Z"
        fill="#CCCDD4" />
    <path
        d="M114.682 9.24663H112.416V16.6956C112.416 17.1246 112.321 17.444 112.129 17.6538C111.938 17.859 111.691 17.9616 111.388 17.9616C111.08 17.9616 110.828 17.8567 110.633 17.6469C110.441 17.437 110.346 17.1199 110.346 16.6956V9.24663H108.08C107.725 9.24663 107.462 9.16969 107.289 9.01582C107.117 8.85728 107.03 8.64978 107.03 8.39332C107.03 8.12753 107.119 7.9177 107.296 7.76383C107.478 7.60995 107.739 7.53301 108.08 7.53301H114.682C115.041 7.53301 115.307 7.61228 115.48 7.77082C115.657 7.92936 115.745 8.13686 115.745 8.39332C115.745 8.64978 115.657 8.85728 115.48 9.01582C115.302 9.16969 115.037 9.24663 114.682 9.24663Z"
        fill="#CCCDD4" />
    <path
        d="M117.347 16.6956V8.61714C117.347 8.19748 117.442 7.88273 117.634 7.6729C117.825 7.46307 118.072 7.35815 118.375 7.35815C118.687 7.35815 118.939 7.46307 119.13 7.6729C119.326 7.87807 119.424 8.19281 119.424 8.61714V16.6956C119.424 17.1199 119.326 17.437 119.13 17.6469C118.939 17.8567 118.687 17.9616 118.375 17.9616C118.077 17.9616 117.829 17.8567 117.634 17.6469C117.442 17.4324 117.347 17.1153 117.347 16.6956Z"
        fill="#CCCDD4" />
    <path
        d="M124.747 8.60315L128.74 14.6463V8.5472C128.74 8.15085 128.824 7.85475 128.992 7.65891C129.165 7.45841 129.396 7.35815 129.685 7.35815C129.983 7.35815 130.219 7.45841 130.391 7.65891C130.564 7.85475 130.65 8.15085 130.65 8.5472V16.6117C130.65 17.5116 130.277 17.9616 129.531 17.9616C129.344 17.9616 129.176 17.9336 129.027 17.8777C128.878 17.8264 128.738 17.7424 128.608 17.6259C128.477 17.5093 128.356 17.3741 128.244 17.2202C128.132 17.0617 128.02 16.9008 127.908 16.7376L124.012 10.7644V16.7726C124.012 17.1642 123.921 17.4603 123.739 17.6608C123.558 17.8613 123.324 17.9616 123.04 17.9616C122.746 17.9616 122.511 17.8613 122.334 17.6608C122.156 17.4557 122.068 17.1596 122.068 16.7726V8.86194C122.068 8.52621 122.105 8.26276 122.18 8.07158C122.268 7.86175 122.415 7.69155 122.62 7.56099C122.825 7.42577 123.047 7.35815 123.285 7.35815C123.471 7.35815 123.63 7.38846 123.76 7.44908C123.896 7.5097 124.012 7.5913 124.11 7.69388C124.213 7.79647 124.315 7.92936 124.418 8.09256C124.525 8.25576 124.635 8.42596 124.747 8.60315Z"
        fill="#CCCDD4" />
    <path
        d="M3.36328 15.2266C3.62109 15.2266 3.85938 15.1738 4.07812 15.0684C4.29688 14.9629 4.47656 14.8184 4.61719 14.6348C4.75781 14.4473 4.83789 14.2344 4.85742 13.9961H5.88867C5.86914 14.3711 5.74219 14.7207 5.50781 15.0449C5.27734 15.3652 4.97461 15.625 4.59961 15.8242C4.22461 16.0195 3.8125 16.1172 3.36328 16.1172C2.88672 16.1172 2.4707 16.0332 2.11523 15.8652C1.76367 15.6973 1.4707 15.4668 1.23633 15.1738C1.00586 14.8809 0.832031 14.5449 0.714844 14.166C0.601562 13.7832 0.544922 13.3789 0.544922 12.9531V12.707C0.544922 12.2812 0.601562 11.8789 0.714844 11.5C0.832031 11.1172 1.00586 10.7793 1.23633 10.4863C1.4707 10.1934 1.76367 9.96289 2.11523 9.79492C2.4707 9.62695 2.88672 9.54297 3.36328 9.54297C3.85938 9.54297 4.29297 9.64453 4.66406 9.84766C5.03516 10.0469 5.32617 10.3203 5.53711 10.668C5.75195 11.0117 5.86914 11.4023 5.88867 11.8398H4.85742C4.83789 11.5781 4.76367 11.3418 4.63477 11.1309C4.50977 10.9199 4.33789 10.752 4.11914 10.627C3.9043 10.498 3.65234 10.4336 3.36328 10.4336C3.03125 10.4336 2.75195 10.5 2.52539 10.6328C2.30273 10.7617 2.125 10.9375 1.99219 11.1602C1.86328 11.3789 1.76953 11.623 1.71094 11.8926C1.65625 12.1582 1.62891 12.4297 1.62891 12.707V12.9531C1.62891 13.2305 1.65625 13.5039 1.71094 13.7734C1.76562 14.043 1.85742 14.2871 1.98633 14.5059C2.11914 14.7246 2.29688 14.9004 2.51953 15.0332C2.74609 15.1621 3.02734 15.2266 3.36328 15.2266ZM8.25 9.66016H9.33398L9.24023 12.0332C9.2168 12.6348 9.14844 13.1543 9.03516 13.5918C8.92188 14.0293 8.77734 14.4023 8.60156 14.7109C8.42578 15.0156 8.22852 15.2715 8.00977 15.4785C7.79492 15.6855 7.57227 15.8594 7.3418 16H6.80273L6.83203 15.1152L7.05469 15.1094C7.18359 14.957 7.30859 14.8008 7.42969 14.6406C7.55078 14.4766 7.66211 14.2832 7.76367 14.0605C7.86523 13.834 7.94922 13.5586 8.01562 13.2344C8.08594 12.9062 8.13086 12.5059 8.15039 12.0332L8.25 9.66016ZM8.51953 9.66016H12.334V16H11.25V10.6621H8.51953V9.66016ZM6.55664 15.1094H13.1484V17.8691H12.0645V16H7.64062V17.8691H6.55078L6.55664 15.1094ZM16.9805 16.1172C16.5391 16.1172 16.1387 16.043 15.7793 15.8945C15.4238 15.7422 15.1172 15.5293 14.8594 15.2559C14.6055 14.9824 14.4102 14.6582 14.2734 14.2832C14.1367 13.9082 14.0684 13.498 14.0684 13.0527V12.8066C14.0684 12.291 14.1445 11.832 14.2969 11.4297C14.4492 11.0234 14.6562 10.6797 14.918 10.3984C15.1797 10.1172 15.4766 9.9043 15.8086 9.75977C16.1406 9.61523 16.4844 9.54297 16.8398 9.54297C17.293 9.54297 17.6836 9.62109 18.0117 9.77734C18.3438 9.93359 18.6152 10.1523 18.8262 10.4336C19.0371 10.7109 19.1934 11.0391 19.2949 11.418C19.3965 11.793 19.4473 12.2031 19.4473 12.6484V13.1348H14.7129V12.25H18.3633V12.168C18.3477 11.8867 18.2891 11.6133 18.1875 11.3477C18.0898 11.082 17.9336 10.8633 17.7188 10.6914C17.5039 10.5195 17.2109 10.4336 16.8398 10.4336C16.5938 10.4336 16.3672 10.4863 16.1602 10.5918C15.9531 10.6934 15.7754 10.8457 15.627 11.0488C15.4785 11.252 15.3633 11.5 15.2812 11.793C15.1992 12.0859 15.1582 12.4238 15.1582 12.8066V13.0527C15.1582 13.3535 15.1992 13.6367 15.2812 13.9023C15.3672 14.1641 15.4902 14.3945 15.6504 14.5938C15.8145 14.793 16.0117 14.9492 16.2422 15.0625C16.4766 15.1758 16.7422 15.2324 17.0391 15.2324C17.4219 15.2324 17.7461 15.1543 18.0117 14.998C18.2773 14.8418 18.5098 14.6328 18.709 14.3711L19.3652 14.8926C19.2285 15.0996 19.0547 15.2969 18.8438 15.4844C18.6328 15.6719 18.373 15.8242 18.0645 15.9414C17.7598 16.0586 17.3984 16.1172 16.9805 16.1172ZM24.9492 9.66016V10.5566H21.8848V9.66016H24.9492ZM25.9043 9.66016V16H24.8203V9.66016H25.9043ZM21.6211 9.66016H22.7109L22.5469 12.7188C22.5195 13.1914 22.4746 13.6094 22.4121 13.9727C22.3535 14.332 22.2715 14.6406 22.166 14.8984C22.0645 15.1562 21.9355 15.3672 21.7793 15.5312C21.627 15.6914 21.4434 15.8105 21.2285 15.8887C21.0137 15.9629 20.7656 16 20.4844 16H20.1445V15.0449L20.3789 15.0273C20.5469 15.0156 20.6895 14.9766 20.8066 14.9102C20.9277 14.8438 21.0293 14.7461 21.1113 14.6172C21.1934 14.4844 21.2598 14.3145 21.3105 14.1074C21.3652 13.9004 21.4062 13.6543 21.4336 13.3691C21.4648 13.084 21.4883 12.752 21.5039 12.373L21.6211 9.66016ZM31.3887 14.916V11.6523C31.3887 11.4023 31.3379 11.1855 31.2363 11.002C31.1387 10.8145 30.9902 10.6699 30.791 10.5684C30.5918 10.4668 30.3457 10.416 30.0527 10.416C29.7793 10.416 29.5391 10.4629 29.332 10.5566C29.1289 10.6504 28.9688 10.7734 28.8516 10.9258C28.7383 11.0781 28.6816 11.2422 28.6816 11.418H27.5977C27.5977 11.1914 27.6562 10.9668 27.7734 10.7441C27.8906 10.5215 28.0586 10.3203 28.2773 10.1406C28.5 9.95703 28.7656 9.8125 29.0742 9.70703C29.3867 9.59766 29.7344 9.54297 30.1172 9.54297C30.5781 9.54297 30.9844 9.62109 31.3359 9.77734C31.6914 9.93359 31.9688 10.1699 32.168 10.4863C32.3711 10.7988 32.4727 11.1914 32.4727 11.6641V14.6172C32.4727 14.8281 32.4902 15.0527 32.5254 15.291C32.5645 15.5293 32.6211 15.7344 32.6953 15.9062V16H31.5645C31.5098 15.875 31.4668 15.709 31.4355 15.502C31.4043 15.291 31.3887 15.0957 31.3887 14.916ZM31.5762 12.1562L31.5879 12.918H30.4922C30.1836 12.918 29.9082 12.9434 29.666 12.9941C29.4238 13.041 29.2207 13.1133 29.0566 13.2109C28.8926 13.3086 28.7676 13.4316 28.6816 13.5801C28.5957 13.7246 28.5527 13.8945 28.5527 14.0898C28.5527 14.2891 28.5977 14.4707 28.6875 14.6348C28.7773 14.7988 28.9121 14.9297 29.0918 15.0273C29.2754 15.1211 29.5 15.168 29.7656 15.168C30.0977 15.168 30.3906 15.0977 30.6445 14.957C30.8984 14.8164 31.0996 14.6445 31.248 14.4414C31.4004 14.2383 31.4824 14.041 31.4941 13.8496L31.957 14.3711C31.9297 14.5352 31.8555 14.7168 31.7344 14.916C31.6133 15.1152 31.4512 15.3066 31.248 15.4902C31.0488 15.6699 30.8105 15.8203 30.5332 15.9414C30.2598 16.0586 29.9512 16.1172 29.6074 16.1172C29.1777 16.1172 28.8008 16.0332 28.4766 15.8652C28.1562 15.6973 27.9062 15.4727 27.7266 15.1914C27.5508 14.9062 27.4629 14.5879 27.4629 14.2363C27.4629 13.8965 27.5293 13.5977 27.6621 13.3398C27.7949 13.0781 27.9863 12.8613 28.2363 12.6895C28.4863 12.5137 28.7871 12.3809 29.1387 12.291C29.4902 12.2012 29.8828 12.1562 30.3164 12.1562H31.5762ZM38.4785 12.4082V13.2871H35.127V12.4082H38.4785ZM35.3555 9.66016V16H34.2715V9.66016H35.3555ZM39.3574 9.66016V16H38.2676V9.66016H39.3574ZM40.8164 12.9004V12.7656C40.8164 12.3086 40.8828 11.8848 41.0156 11.4941C41.1484 11.0996 41.3398 10.7578 41.5898 10.4688C41.8398 10.1758 42.1426 9.94922 42.498 9.78906C42.8535 9.625 43.252 9.54297 43.6934 9.54297C44.1387 9.54297 44.5391 9.625 44.8945 9.78906C45.2539 9.94922 45.5586 10.1758 45.8086 10.4688C46.0625 10.7578 46.2559 11.0996 46.3887 11.4941C46.5215 11.8848 46.5879 12.3086 46.5879 12.7656V12.9004C46.5879 13.3574 46.5215 13.7812 46.3887 14.1719C46.2559 14.5625 46.0625 14.9043 45.8086 15.1973C45.5586 15.4863 45.2559 15.7129 44.9004 15.877C44.5488 16.0371 44.1504 16.1172 43.7051 16.1172C43.2598 16.1172 42.8594 16.0371 42.5039 15.877C42.1484 15.7129 41.8438 15.4863 41.5898 15.1973C41.3398 14.9043 41.1484 14.5625 41.0156 14.1719C40.8828 13.7812 40.8164 13.3574 40.8164 12.9004ZM41.9004 12.7656V12.9004C41.9004 13.2168 41.9375 13.5156 42.0117 13.7969C42.0859 14.0742 42.1973 14.3203 42.3457 14.5352C42.498 14.75 42.6875 14.9199 42.9141 15.0449C43.1406 15.166 43.4043 15.2266 43.7051 15.2266C44.002 15.2266 44.2617 15.166 44.4844 15.0449C44.7109 14.9199 44.8984 14.75 45.0469 14.5352C45.1953 14.3203 45.3066 14.0742 45.3809 13.7969C45.459 13.5156 45.498 13.2168 45.498 12.9004V12.7656C45.498 12.4531 45.459 12.1582 45.3809 11.8809C45.3066 11.5996 45.1934 11.3516 45.041 11.1367C44.8926 10.918 44.7051 10.7461 44.4785 10.6211C44.2559 10.4961 43.9941 10.4336 43.6934 10.4336C43.3965 10.4336 43.1348 10.4961 42.9082 10.6211C42.6855 10.7461 42.498 10.918 42.3457 11.1367C42.1973 11.3516 42.0859 11.5996 42.0117 11.8809C41.9375 12.1582 41.9004 12.4531 41.9004 12.7656ZM53.9004 13.2109H51.8203L51.8086 12.3438H53.5078C53.8438 12.3438 54.123 12.3105 54.3457 12.2441C54.5723 12.1777 54.7422 12.0781 54.8555 11.9453C54.9688 11.8125 55.0254 11.6484 55.0254 11.4531C55.0254 11.3008 54.9922 11.168 54.9258 11.0547C54.8633 10.9375 54.7676 10.8418 54.6387 10.7676C54.5098 10.6895 54.3496 10.6328 54.1582 10.5977C53.9707 10.5586 53.75 10.5391 53.4961 10.5391H52.1074V16H51.0234V9.66016H53.4961C53.8984 9.66016 54.2598 9.69531 54.5801 9.76562C54.9043 9.83594 55.1797 9.94336 55.4062 10.0879C55.6367 10.2285 55.8125 10.4082 55.9336 10.627C56.0547 10.8457 56.1152 11.1035 56.1152 11.4004C56.1152 11.5918 56.0762 11.7734 55.998 11.9453C55.9199 12.1172 55.8047 12.2695 55.6523 12.4023C55.5 12.5352 55.3125 12.6445 55.0898 12.7305C54.8672 12.8125 54.6113 12.8652 54.3223 12.8887L53.9004 13.2109ZM53.9004 16H51.4277L51.9668 15.1211H53.9004C54.2012 15.1211 54.4512 15.084 54.6504 15.0098C54.8496 14.9316 54.998 14.8223 55.0957 14.6816C55.1973 14.5371 55.248 14.3652 55.248 14.166C55.248 13.9668 55.1973 13.7969 55.0957 13.6562C54.998 13.5117 54.8496 13.4023 54.6504 13.3281C54.4512 13.25 54.2012 13.2109 53.9004 13.2109H52.2539L52.2656 12.3438H54.3223L54.7148 12.6719C55.0625 12.6992 55.3574 12.7852 55.5996 12.9297C55.8418 13.0742 56.0254 13.2578 56.1504 13.4805C56.2754 13.6992 56.3379 13.9375 56.3379 14.1953C56.3379 14.4922 56.2812 14.7539 56.168 14.9805C56.0586 15.207 55.8984 15.3965 55.6875 15.5488C55.4766 15.6973 55.2207 15.8105 54.9199 15.8887C54.6191 15.9629 54.2793 16 53.9004 16Z"
        fill="#CCCDD4" />
</svg>
