<svg width="83" height="82" viewBox="0 0 83 82" fill="none" xmlns="http://www.w3.org/2000/svg">
    <path d="M37.5555 62.4672L24.0134 69.5256L33.543 56.9464L37.5555 62.4672Z" fill="#0000DD" />
    <path
        d="M78.7529 9.76114L7.73827 29.9758C5.63703 30.5722 5.01723 33.2517 6.64425 34.7101L56.2637 79.2753C57.7524 80.6136 60.1274 79.9834 60.7532 78.0814L82.1527 13.302C82.8472 11.1842 80.8954 9.15266 78.7529 9.76114Z"
        fill="#8080FE" />
    <path
        d="M72.6856 19.0006L33.4951 58.82L24.2035 69.3613C23.5009 70.0923 22.2697 69.4991 22.4046 68.4933L24.7551 50.9705L72.6856 19.0006Z"
        fill="#1313FF" />
    <path
        d="M22.3933 42.9791L11.2072 33.6584C10.6552 33.2004 10.8493 32.3129 11.5368 32.1227L35.2855 25.5331C35.2855 25.5331 22.2361 31.3204 22.3933 42.9791Z"
        fill="#A4A8FF" />
    <path
        d="M82.1481 13.3014L60.7487 78.0807C60.1185 79.9821 57.7478 80.613 56.2592 79.2747L42.1468 66.6002C49.717 73.3661 57.4509 77.3647 66.7879 50.792C73.182 32.6024 77.4522 17.4818 79.5349 9.65416C81.3394 9.65791 82.7632 11.4465 82.1481 13.3014Z"
        fill="#1313FF" />
</svg>
