<svg width="15" height="15" viewBox="0 0 15 15" fill="none" xmlns="http://www.w3.org/2000/svg">
    <path
        d="M2.58493 13.1986L2.96699 12.6727L2.58493 13.1986ZM1.8014 12.4151L2.32726 12.033L1.8014 12.4151ZM13.1986 12.4151L12.6727 12.033L13.1986 12.4151ZM12.4151 13.1986L12.033 12.6727L12.4151 13.1986ZM12.4151 1.8014L12.033 2.32726L12.4151 1.8014ZM13.1986 2.58493L12.6727 2.96699L13.1986 2.58493ZM2.58493 1.8014L2.96699 2.32726L2.58493 1.8014ZM1.8014 2.58493L2.32726 2.96699L1.8014 2.58493ZM8.15 6.79167C8.15 6.43268 7.85898 6.14167 7.5 6.14167C7.14101 6.14167 6.85 6.43268 6.85 6.79167H8.15ZM6.85 11.0417C6.85 11.4007 7.14101 11.6917 7.5 11.6917C7.85898 11.6917 8.15 11.4007 8.15 11.0417H6.85ZM7.5 13.225C6.15749 13.225 5.20282 13.2241 4.46557 13.1442C3.74049 13.0657 3.30321 12.917 2.96699 12.6727L2.20287 13.7245C2.79763 14.1566 3.48985 14.3461 4.32555 14.4367C5.14907 14.5259 6.18645 14.525 7.5 14.525V13.225ZM0.475 7.5C0.475 8.81355 0.474108 9.85093 0.563331 10.6745C0.653873 11.5101 0.843417 12.2024 1.27554 12.7971L2.32726 12.033C2.08298 11.6968 1.93433 11.2595 1.85577 10.5344C1.77589 9.79718 1.775 8.84251 1.775 7.5H0.475ZM2.96699 12.6727C2.7215 12.4944 2.50562 12.2785 2.32726 12.033L1.27554 12.7971C1.53408 13.153 1.84702 13.4659 2.20287 13.7245L2.96699 12.6727ZM13.225 7.5C13.225 8.84251 13.2241 9.79718 13.1442 10.5344C13.0657 11.2595 12.917 11.6968 12.6727 12.033L13.7245 12.7971C14.1566 12.2024 14.3461 11.5101 14.4367 10.6745C14.5259 9.85093 14.525 8.81355 14.525 7.5H13.225ZM7.5 14.525C8.81355 14.525 9.85093 14.5259 10.6745 14.4367C11.5101 14.3461 12.2024 14.1566 12.7971 13.7245L12.033 12.6727C11.6968 12.917 11.2595 13.0657 10.5344 13.1442C9.79718 13.2241 8.84251 13.225 7.5 13.225V14.525ZM12.6727 12.033C12.4944 12.2785 12.2785 12.4944 12.033 12.6727L12.7971 13.7245C13.153 13.4659 13.4659 13.153 13.7245 12.7971L12.6727 12.033ZM7.5 1.775C8.84251 1.775 9.79718 1.77589 10.5344 1.85577C11.2595 1.93433 11.6968 2.08298 12.033 2.32726L12.7971 1.27554C12.2024 0.843417 11.5101 0.653873 10.6745 0.563331C9.85093 0.474108 8.81355 0.475 7.5 0.475V1.775ZM14.525 7.5C14.525 6.18645 14.5259 5.14907 14.4367 4.32555C14.3461 3.48985 14.1566 2.79763 13.7245 2.20287L12.6727 2.96699C12.917 3.30321 13.0657 3.74049 13.1442 4.46557C13.2241 5.20282 13.225 6.15749 13.225 7.5H14.525ZM12.033 2.32726C12.2785 2.50562 12.4944 2.7215 12.6727 2.96699L13.7245 2.20287C13.4659 1.84702 13.153 1.53408 12.7971 1.27554L12.033 2.32726ZM7.5 0.475C6.18645 0.475 5.14907 0.474108 4.32555 0.563331C3.48985 0.653873 2.79763 0.843417 2.20287 1.27554L2.96699 2.32726C3.30321 2.08298 3.74049 1.93433 4.46557 1.85577C5.20282 1.77589 6.15749 1.775 7.5 1.775V0.475ZM1.775 7.5C1.775 6.15749 1.77589 5.20282 1.85577 4.46557C1.93433 3.74049 2.08298 3.30321 2.32726 2.96699L1.27554 2.20287C0.843417 2.79763 0.653873 3.48985 0.563331 4.32555C0.474108 5.14907 0.475 6.18645 0.475 7.5H1.775ZM2.20287 1.27554C1.84702 1.53408 1.53408 1.84702 1.27554 2.20287L2.32726 2.96699C2.50562 2.7215 2.7215 2.50562 2.96699 2.32726L2.20287 1.27554ZM6.85 6.79167V11.0417H8.15V6.79167H6.85Z"
        fill="#5353C0" />
    <path
        d="M8.20841 4.66659C8.20841 5.05779 7.89128 5.37492 7.50008 5.37492C7.10888 5.37492 6.79175 5.05779 6.79175 4.66659C6.79175 4.27538 7.10888 3.95825 7.50008 3.95825C7.89128 3.95825 8.20841 4.27538 8.20841 4.66659Z"
        fill="#5353C0" />
</svg>
