<svg width="28" height="28" viewBox="0 0 28 28" fill="none" xmlns="http://www.w3.org/2000/svg">
<path fill-rule="evenodd" clip-rule="evenodd" d="M13.9543 2.75H14.0457C16.1943 2.74999 17.8682 2.74999 19.194 2.89362C20.5431 3.03979 21.6204 3.3419 22.5363 4.0073C23.0951 4.41336 23.5866 4.90486 23.9927 5.46375C24.6581 6.3796 24.9602 7.45686 25.1064 8.80602C25.25 10.1318 25.25 11.8057 25.25 13.9544V14.0456C25.25 16.1943 25.25 17.8682 25.1064 19.194C24.9602 20.5431 24.6581 21.6204 23.9927 22.5363C23.5866 23.0951 23.0951 23.5866 22.5363 23.9927C21.6204 24.6581 20.5431 24.9602 19.194 25.1064C17.8682 25.25 16.1943 25.25 14.0456 25.25H13.9544C11.8057 25.25 10.1318 25.25 8.80602 25.1064C7.45686 24.9602 6.3796 24.6581 5.46375 23.9927C4.90486 23.5866 4.41336 23.0951 4.0073 22.5363C3.3419 21.6204 3.03979 20.5431 2.89362 19.194C2.74999 17.8682 2.74999 16.1943 2.75 14.0457V13.9543C2.74999 11.8057 2.74999 10.1318 2.89362 8.80602C3.03979 7.45686 3.3419 6.3796 4.0073 5.46375C4.41336 4.90486 4.90486 4.41336 5.46375 4.0073C6.3796 3.3419 7.45686 3.03979 8.80602 2.89362C10.1318 2.74999 11.8057 2.74999 13.9543 2.75ZM8.96759 4.3849C7.74606 4.51724 6.96296 4.77217 6.34543 5.22083C5.91388 5.53437 5.53437 5.91388 5.22083 6.34543C4.77217 6.96296 4.51724 7.74606 4.3849 8.96759C4.25103 10.2032 4.25 11.7959 4.25 14C4.25 16.2041 4.25103 17.7968 4.3849 19.0324C4.51724 20.2539 4.77217 21.037 5.22083 21.6546C5.53437 22.0861 5.91388 22.4656 6.34543 22.7792C6.96296 23.2278 7.74606 23.4828 8.96759 23.6151C10.2032 23.749 11.7959 23.75 14 23.75C16.2041 23.75 17.7968 23.749 19.0324 23.6151C20.2539 23.4828 21.037 23.2278 21.6546 22.7792C22.0861 22.4656 22.4656 22.0861 22.7792 21.6546C23.2278 21.037 23.4828 20.2539 23.6151 19.0324C23.749 17.7968 23.75 16.2041 23.75 14C23.75 11.7959 23.749 10.2032 23.6151 8.96759C23.4828 7.74606 23.2278 6.96296 22.7792 6.34543C22.4656 5.91388 22.0861 5.53437 21.6546 5.22083C21.037 4.77217 20.2539 4.51724 19.0324 4.3849C17.7968 4.25103 16.2041 4.25 14 4.25C11.7959 4.25 10.2032 4.25103 8.96759 4.3849ZM20.1636 9.99331C20.5355 10.1757 20.6891 10.6251 20.5067 10.997L18.803 14.4702C17.6575 16.8054 14.2907 16.6914 13.3058 14.284C12.811 13.0743 11.1193 13.017 10.5437 14.1904L8.84002 17.6636C8.6576 18.0355 8.20825 18.1891 7.83637 18.0067C7.46449 17.8243 7.3109 17.3749 7.49332 17.003L9.19704 13.5298C10.3425 11.1946 13.7093 11.3086 14.6942 13.716C15.189 14.9257 16.8807 14.983 17.4563 13.8096L19.16 10.3364C19.3424 9.96449 19.7917 9.8109 20.1636 9.99331Z" fill="#B8B8B8"/>
</svg>
