<svg width="19" height="18" viewBox="0 0 19 18" fill="none" xmlns="http://www.w3.org/2000/svg">
<path d="M5.36364 11.5506C3.92004 11.9078 3 12.4481 3 13.0528C3 14.1282 5.91015 15 9.5 15C13.0899 15 16 14.1282 16 13.0528C16 12.4481 15.08 11.9078 13.6364 11.5506M10.6818 6.13636C10.6818 6.78906 10.1527 7.31818 9.5 7.31818C8.8473 7.31818 8.31818 6.78906 8.31818 6.13636C8.31818 5.48366 8.8473 4.95455 9.5 4.95455C10.1527 4.95455 10.6818 5.48366 10.6818 6.13636ZM13.6364 5.98864C13.6364 8.5 11.2727 11.4545 9.5 12.6364C7.72727 11.4545 5.36364 8.5 5.36364 5.98864C5.36364 3.78577 7.13636 2 9.5 2C11.8636 2 13.6364 3.78577 13.6364 5.98864Z" stroke="#B8B8B8" stroke-width="1.125" stroke-linecap="round" stroke-linejoin="round"/>
</svg>
