<svg width="24" height="24" viewBox="0 0 24 24" fill="none" xmlns="http://www.w3.org/2000/svg">
    <path fill-rule="evenodd" clip-rule="evenodd"
        d="M6.29587 5.27023C6.65445 2.43916 9.07158 0.25 12 0.25C14.9322 0.25 17.3517 2.44477 17.7055 5.28111C19.0696 5.33464 20.1017 5.48655 20.9705 5.96618C22.0199 6.54553 22.8597 7.437 23.3759 8.51325C23.4201 8.60546 23.462 8.69902 23.5014 8.79384C23.8065 9.52824 23.8878 10.3305 23.863 11.2951C23.8386 12.2444 23.7076 13.4236 23.5401 14.9311L23.5327 14.9977C23.3958 16.2294 23.2883 17.1971 23.1403 17.9736C22.9894 18.7659 22.787 19.4163 22.4307 19.9991C21.8427 20.961 20.9848 21.7289 19.9637 22.2071C19.3452 22.4968 18.6764 22.6262 17.8723 22.6887C17.0842 22.75 16.1105 22.75 14.8712 22.75H9.12882C7.88947 22.75 6.91578 22.75 6.12766 22.6887C5.32359 22.6262 4.65481 22.4968 4.03626 22.2071C3.01524 21.7289 2.15735 20.961 1.56929 19.9991C1.21303 19.4163 1.01059 18.7659 0.859659 17.9736C0.711726 17.1971 0.604202 16.2294 0.467342 14.9976L0.459944 14.931C0.292444 13.4235 0.161425 12.2444 0.136994 11.2951C0.112173 10.3305 0.193494 9.52824 0.498622 8.79384C0.513539 8.75794 0.528807 8.72221 0.544423 8.68668C1.05148 7.53279 1.92423 6.57637 3.0295 5.96618C3.89484 5.48844 4.93038 5.32678 6.29587 5.27023ZM7.81688 5.24492C7.99058 5.24531 8.16951 5.24625 8.35347 5.24722C8.61262 5.24858 8.88177 5.25 9.16034 5.25H14.8453C15.3249 5.25 15.7705 5.25 16.1845 5.25239C15.8312 3.2617 14.0921 1.75 12 1.75C9.91049 1.75 8.17317 3.25792 7.81688 5.24492ZM8.31928 6.74711C7.8399 6.74454 7.41428 6.74227 7.01425 6.74986C5.29212 6.78258 4.40153 6.92212 3.75447 7.27935C3.085 7.64894 2.53095 8.1904 2.14649 8.84318L5.33793 12.0346C7.01959 13.7163 8.22861 14.9231 9.27142 15.7187C10.2969 16.5011 11.0731 16.815 11.8787 16.815C12.6843 16.815 13.4604 16.5011 14.4859 15.7187C15.5287 14.923 16.7377 13.7163 18.4194 12.0346L21.7609 8.69313C21.3823 8.10733 20.863 7.62024 20.2455 7.27935C19.599 6.92243 18.7218 6.79406 16.986 6.76157C16.3695 6.75003 15.6641 6.75 14.8397 6.75H9.16034C8.86076 6.75 8.58195 6.74851 8.31928 6.74711ZM22.3301 10.2453L19.4395 13.1359C17.8072 14.7681 16.528 16.0473 15.3958 16.9112C14.2369 17.7955 13.1441 18.315 11.8787 18.315C10.6132 18.315 9.52048 17.7955 8.36155 16.9112C7.22929 16.0473 5.95011 14.7681 4.31784 13.1359L1.64958 10.4676C1.63316 10.7001 1.62888 10.9604 1.6365 11.2565C1.65909 12.1345 1.78244 13.2503 1.95469 14.8006C2.09579 16.0705 2.19741 16.9804 2.33316 17.6929C2.46716 18.3964 2.62487 18.8499 2.8491 19.2167C3.28375 19.9277 3.91785 20.4953 4.67251 20.8487C5.06183 21.0311 5.53001 21.1377 6.24393 21.1932C6.96714 21.2495 7.88266 21.25 9.16034 21.25H14.8397C16.1173 21.25 17.0329 21.2495 17.7561 21.1932C18.47 21.1377 18.9382 21.0311 19.3275 20.8487C20.0822 20.4953 20.7163 19.9277 21.1509 19.2167C21.3751 18.8499 21.5328 18.3964 21.6668 17.6929C21.8026 16.9804 21.9042 16.0705 22.0453 14.8006C22.2176 13.2503 22.3409 12.1345 22.3635 11.2565C22.3737 10.8623 22.3627 10.5315 22.3301 10.2453Z"
        fill="black" />
</svg>
