<svg width="23" height="23" viewBox="0 0 23 23" fill="none" xmlns="http://www.w3.org/2000/svg">
    <path
        d="M16.7705 20.1251H6.22884C4.90566 20.1251 3.83301 19.0525 3.83301 17.7293C3.83301 13.8186 9.58301 13.8959 11.4997 13.8959C13.4163 13.8959 19.1663 13.8186 19.1663 17.7293C19.1663 19.0525 18.0937 20.1251 16.7705 20.1251Z"
        fill="#2D2D7A" />
    <path
        d="M11.4997 10.5417C13.6168 10.5417 15.333 8.82542 15.333 6.70833C15.333 4.59124 13.6168 2.875 11.4997 2.875C9.38258 2.875 7.66634 4.59124 7.66634 6.70833C7.66634 8.82542 9.38258 10.5417 11.4997 10.5417Z"
        fill="#2D2D7A" />
    <path
        d="M16.7705 20.1251H6.22884C4.90566 20.1251 3.83301 19.0525 3.83301 17.7293C3.83301 13.8186 9.58301 13.8959 11.4997 13.8959C13.4163 13.8959 19.1663 13.8186 19.1663 17.7293C19.1663 19.0525 18.0937 20.1251 16.7705 20.1251Z"
        stroke="#2D2D7A" stroke-linecap="round" stroke-linejoin="round" />
    <path
        d="M11.4997 10.5417C13.6168 10.5417 15.333 8.82542 15.333 6.70833C15.333 4.59124 13.6168 2.875 11.4997 2.875C9.38258 2.875 7.66634 4.59124 7.66634 6.70833C7.66634 8.82542 9.38258 10.5417 11.4997 10.5417Z"
        stroke="#2D2D7A" stroke-linecap="round" stroke-linejoin="round" />
</svg>
