<svg width="157" height="23" viewBox="0 0 157 23" fill="none" xmlns="http://www.w3.org/2000/svg">
    <path
        d="M8.95175 13.8473L13.9197 0.748535H19.2777L12.1867 17.4289C11.9171 18.0451 11.6042 18.6324 11.248 19.1908C10.9014 19.7492 10.4874 20.245 10.006 20.6783C9.53424 21.1115 8.97582 21.4533 8.33075 21.7037C7.68568 21.954 6.92989 22.0791 6.06338 22.0791C5.85157 22.0791 5.59161 22.0743 5.28352 22.0647C4.98506 22.0647 4.7251 22.0599 4.50366 22.0503L4.41701 18.1221C4.54217 18.151 4.71547 18.1702 4.93692 18.1798C5.15836 18.1798 5.31722 18.1798 5.4135 18.1798C5.99117 18.1798 6.4485 18.1125 6.78547 17.9777C7.12245 17.8332 7.38722 17.6214 7.57977 17.3422C7.78196 17.0534 7.95526 16.6875 8.09968 16.2446L8.95175 13.8473ZM6.13559 0.748535L10.4393 9.87578L12.0856 15.7103H8.44629L0.748779 0.748535H6.13559Z"
        fill="black" />
    <path
        d="M35.1782 9.09593V12.9952H24.3901V9.09593H35.1782ZM26.0798 0.748535V21.7759H21.0107V0.748535H26.0798ZM38.5864 0.748535V21.7759H33.5318V0.748535H38.5864Z"
        fill="black" />
    <path
        d="M46.5872 14.0206L54.1403 0.748535H59.2094V21.7759H54.1403V8.51825L46.5872 21.7759H41.5181V0.748535H46.5872V14.0206Z"
        fill="black" />
    <path
        d="M70.8928 12.8364H65.4771L65.4483 9.51474H69.8386C70.6281 9.51474 71.2587 9.42809 71.7305 9.25479C72.2022 9.07186 72.544 8.80709 72.7558 8.46048C72.9773 8.11388 73.088 7.68062 73.088 7.16072C73.088 6.56379 72.9773 6.08239 72.7558 5.71653C72.5344 5.35067 72.183 5.0859 71.7016 4.92223C71.2298 4.74893 70.6185 4.66228 69.8675 4.66228H67.3835V21.7759H62.3144V0.748535H69.8675C71.1672 0.748535 72.3274 0.868884 73.348 1.10958C74.3685 1.34065 75.235 1.69688 75.9475 2.17828C76.6696 2.65967 77.2184 3.26623 77.5939 3.99795C77.9694 4.72004 78.1571 5.57211 78.1571 6.55416C78.1571 7.41104 77.9742 8.21497 77.6083 8.96595C77.2424 9.71692 76.6311 10.3283 75.7742 10.8001C74.9269 11.2622 73.7668 11.5029 72.2937 11.5222L70.8928 12.8364ZM70.6907 21.7759H64.2496L65.9826 17.8766H70.6907C71.3839 17.8766 71.9375 17.7707 72.3515 17.5588C72.7751 17.3374 73.0784 17.0486 73.2613 16.6923C73.4539 16.3265 73.5501 15.9221 73.5501 15.4792C73.5501 14.9401 73.4587 14.4731 73.2757 14.0784C73.1024 13.6836 72.8232 13.3803 72.4381 13.1685C72.053 12.9471 71.5379 12.8364 70.8928 12.8364H66.6325L66.6614 9.51474H71.7594L72.9436 10.8434C74.3493 10.7856 75.4613 10.983 76.2797 11.4355C77.1077 11.888 77.6998 12.4849 78.056 13.2263C78.4122 13.9676 78.5904 14.7427 78.5904 15.5514C78.5904 16.9282 78.2919 18.0788 77.695 19.003C77.1077 19.9273 76.2267 20.6205 75.0521 21.0827C73.8775 21.5448 72.4237 21.7759 70.6907 21.7759Z"
        fill="black" />
    <path
        d="M95.8773 17.8766V21.7759H84.6704V17.8766H95.8773ZM86.4756 0.748535V21.7759H81.4065V0.748535H86.4756ZM94.4331 9.09593V12.8652H84.6704V9.09593H94.4331ZM95.9206 0.748535V4.66228H84.6704V0.748535H95.9206Z"
        fill="black" />
    <path
        d="M106.348 14.6416H101.12V10.7279H106.348C107.06 10.7279 107.638 10.6075 108.081 10.3668C108.523 10.1261 108.846 9.79395 109.048 9.37032C109.26 8.93707 109.366 8.45086 109.366 7.91169C109.366 7.33402 109.26 6.79967 109.048 6.30865C108.846 5.81763 108.523 5.42288 108.081 5.12442C107.638 4.81632 107.06 4.66228 106.348 4.66228H103.026V21.7759H97.9569V0.748535H106.348C108.032 0.748535 109.481 1.05663 110.695 1.67281C111.917 2.289 112.856 3.13625 113.511 4.21458C114.165 5.28328 114.493 6.50602 114.493 7.88281C114.493 9.24034 114.165 10.4246 113.511 11.4355C112.856 12.4464 111.917 13.2359 110.695 13.804C109.481 14.3624 108.032 14.6416 106.348 14.6416Z"
        fill="black" />
    <path
        d="M111.474 19.4941C111.474 18.8008 111.725 18.2232 112.225 17.761C112.726 17.2893 113.371 17.0534 114.161 17.0534C114.96 17.0534 115.605 17.2893 116.096 17.761C116.596 18.2232 116.847 18.8008 116.847 19.4941C116.847 20.1873 116.596 20.7698 116.096 21.2415C115.605 21.7037 114.96 21.9347 114.161 21.9347C113.371 21.9347 112.726 21.7037 112.225 21.2415C111.725 20.7698 111.474 20.1873 111.474 19.4941Z"
        fill="black" />
    <path
        d="M128.732 14.6416H123.505V10.7279H128.732C129.445 10.7279 130.023 10.6075 130.465 10.3668C130.908 10.1261 131.231 9.79395 131.433 9.37032C131.645 8.93707 131.751 8.45086 131.751 7.91169C131.751 7.33402 131.645 6.79967 131.433 6.30865C131.231 5.81763 130.908 5.42288 130.465 5.12442C130.023 4.81632 129.445 4.66228 128.732 4.66228H125.411V21.7759H120.342V0.748535H128.732C130.417 0.748535 131.866 1.05663 133.079 1.67281C134.302 2.289 135.241 3.13625 135.896 4.21458C136.55 5.28328 136.878 6.50602 136.878 7.88281C136.878 9.24034 136.55 10.4246 135.896 11.4355C135.241 12.4464 134.302 13.2359 133.079 13.804C131.866 14.3624 130.417 14.6416 128.732 14.6416Z"
        fill="black" />
    <path
        d="M146.265 13.8473L151.233 0.748535H156.591L149.5 17.4289C149.23 18.0451 148.917 18.6324 148.561 19.1908C148.215 19.7492 147.801 20.245 147.319 20.6783C146.847 21.1115 146.289 21.4533 145.644 21.7037C144.999 21.954 144.243 22.0791 143.376 22.0791C143.165 22.0791 142.905 22.0743 142.597 22.0647C142.298 22.0647 142.038 22.0599 141.817 22.0503L141.73 18.1221C141.855 18.151 142.029 18.1702 142.25 18.1798C142.471 18.1798 142.63 18.1798 142.727 18.1798C143.304 18.1798 143.762 18.1125 144.099 17.9777C144.436 17.8332 144.7 17.6214 144.893 17.3422C145.095 17.0534 145.268 16.6875 145.413 16.2446L146.265 13.8473ZM143.449 0.748535L147.752 9.87578L149.399 15.7103H145.759L138.062 0.748535H143.449Z"
        fill="black" />
</svg>
